# xmcd
#
# Track frame offsets: 
#        150
#        22128
#        34857
#        44344
#        53121
#
# Disc length: 995 seconds
#
# Revision: 1
# Processed by: cddbd v1.5.2PL0 Copyright (c) Steve Scherf et al.
# Submitted via: ExactAudioCopy v1.3
#
DISCID=3e03e105
DTITLE=張敬軒 - Hinsideout 演唱會 CD 3
DYEAR=2018
DGENRE=Pop
TTITLE0=笑忘書
TTITLE1=張敬軒 featuring BOYZ - la la 世界
TTITLE2=失戀
TTITLE3=jai ho
TTITLE4=不吐不快
EXTD=
EXTT0=
EXTT1=
EXTT2=
EXTT3=
EXTT4=
PLAYORDER=
